<?xml version="1.0"?>
<svg xmlns="http://www.w3.org/2000/svg" height="512px" viewBox="0 0 512 512" width="512px" class="">
    <g>
        <g id="Smartphone">
            <rect fill="#78b9eb" height="480" rx="32" width="256" x="128" y="18" data-original="#78B9EB"
                  class="active-path" style="fill:#FFFF00" data-old_color="#78b9eb"/>
            <path d="m312 58h-112l-8-40h128z" fill="#787680" data-original="#787680" class=""/>
            <path d="m352 8h-192a40.045 40.045 0 0 0 -40 40v416a40.045 40.045 0 0 0 40 40h192a40.045 40.045 0 0 0 40-40v-416a40.045 40.045 0 0 0 -40-40zm-41.758 16-4.8 24h-98.883l-4.8-24zm65.758 440a24.027 24.027 0 0 1 -24 24h-192a24.027 24.027 0 0 1 -24-24v-416a24.027 24.027 0 0 1 24-24h25.441l6.714 33.569a8 8 0 0 0 7.845 6.431h112a8 8 0 0 0 7.845-6.431l6.714-33.569h25.441a24.027 24.027 0 0 1 24 24z"
                  data-original="#000000" class=""/>
            <path d="m208 456h-48a8 8 0 0 0 0 16h48a8 8 0 0 0 0-16z" data-original="#000000" class=""/>
            <path d="m240 456h-8a8 8 0 0 0 0 16h8a8 8 0 0 0 0-16z" data-original="#000000" class=""/>
        </g>
    </g>
</svg>
