<svg id="Layer_1" data-name="Layer 1" xmlns="http://www.w3.org/2000/svg" xmlns:xlink="http://www.w3.org/1999/xlink" viewBox="0 0 500 500"><defs><style>.cls-1,.cls-9{fill:none;}.cls-2{clip-path:url(#clip-path);}.cls-3{fill:#f4f4f4;}.cls-4{fill:#ffbba8;}.cls-5{fill:#eeaa53;}.cls-6{opacity:0.43;}.cls-7{fill:#d89282;opacity:0.25;}.cls-8{fill:#431754;}.cls-9{stroke:#3f2300;stroke-linecap:round;stroke-miterlimit:10;stroke-width:0.25px;}.cls-10,.cls-11{fill:#fa687d;}.cls-10{opacity:0.61;}.cls-12{opacity:0.1;}.cls-13{fill:#fff;}.cls-14{fill:#35d7b0;}.cls-15{fill:#452964;opacity:0.36;}</style><clipPath id="clip-path"><circle class="cls-1" cx="260.86" cy="269.43" r="168.83"/></clipPath></defs><title>Artboard 3</title><g class="cls-2"><circle class="cls-3" cx="255.17" cy="269.25" r="168.83"/><path class="cls-4" d="M147.59,353.29l-63.1,72.25c-8.69,11.51-12.95,21.25.18,32.3h0c14,11.83,27.39,1.81,38.73-12.65l54.15-62.8Z"/><path class="cls-4" d="M83.44,459.12a22.47,22.47,0,0,1-6-7.35L24.74,330.54l21-10.64,69.4,113c9,15.45-3.14,33.6-20.7,31.09A22.77,22.77,0,0,1,83.44,459.12Z"/><path class="cls-5" d="M353.43,606.86c-118.68,40-188.92,13.32-188.92,13.32s-16.67-115.24-2.28-250.68c10.61-100,13.66-103.42,66.41-103.52h51.64c.78,0,1.5,0,2.23,0,65.35,1,59.29,46.4,63.7,92.91C359.24,496.66,353.43,606.86,353.43,606.86Z"/><path class="cls-5" d="M179.44,280.5S110,363.78,98.81,393.17l50.67,35s55.38-32.56,63.26-50.3C212.74,377.86,212.66,324.5,179.44,280.5Z"/><path class="cls-6" d="M283.67,274.07a28.1,28.1,0,1,1-55-8.09h51.64c.78,0,1.5,0,2.23,0A27.19,27.19,0,0,1,283.67,274.07Z"/><path class="cls-5" d="M326.38,279.15s69,83.32,79.16,113.08l-51.64,35S299.07,393.81,291.48,376C291.48,376,292.44,322.59,326.38,279.15Z"/><path class="cls-4" d="M276.58,274.28a6.55,6.55,0,0,1,0,.88,21.44,21.44,0,0,1-42.81.61c0-.48-.07-1-.07-1.49l-.78-42.38H275.8Z"/><path class="cls-7" d="M275.79,251.15V258a21.14,21.14,0,0,1-16.31,7.59h-10.3A21.37,21.37,0,0,1,232.87,258V245.48C245.91,255.6,261.7,260.66,275.79,251.15Z"/><path class="cls-8" d="M298,146.21s3.8,23.53,1.64,31.73c0,0-8.65-16.34-10-25.55C289.68,152.39,291.54,139.32,298,146.21Z"/><path class="cls-4" d="M286.18,240.81a47.45,47.45,0,0,1-5.5,6.33c-17.1,16.44-37.65,8.11-53-6-11.74-10.87-20.42-25.17-22-34.38-.13-.61-.22-1.26-.35-1.88-.74-4-1.57-8-2.36-12.08-.08-.35-.17-.7-.22-1.05a7.27,7.27,0,0,1-.17-.91c-.65-3.23-1.22-6.5-1.74-9.73-1.71-11.17-2.1-22.08,1.7-32.07a30.42,30.42,0,0,1,2.53-5.45,23.6,23.6,0,0,1,1.22-2.09c12.3-19.11,81.84-3.67,81.84-3.67s1.48,3.19,3.4,8.64c.87,2.49,1.83,5.41,2.79,8.68A152.52,152.52,0,0,1,299,176.68C301.79,196.75,300.7,221.05,286.18,240.81Z"/><path class="cls-8" d="M235.67,146.75S230.79,175.3,203,192.8c0,0-9.86-4.05-9.34-23.42s12.18-26.27,12.18-26.27Z"/><path class="cls-8" d="M294.35,155.17s11.42-20.79,1.61-33.68c-7.2-9.48-17.47-12.57-34.81-5.8s-43.47,7-51,13.66c-12.08,10.72-23.64,23.2,13.36,20.94S294.35,155.17,294.35,155.17Z"/><path class="cls-9" d="M195.45,188.05c9.42,1,12.61,9.8,12.61,9.8"/><path class="cls-9" d="M203.18,198.07a14.43,14.43,0,0,1-.3-7.06"/><circle class="cls-4" cx="203.71" cy="194.77" r="19.71"/><ellipse class="cls-10" cx="240.71" cy="215.48" rx="6.23" ry="6.43" transform="translate(9.85 441.48) rotate(-86.22)"/><ellipse class="cls-10" cx="290.73" cy="218.14" rx="6.23" ry="6.43" transform="translate(53.92 493.87) rotate(-86.22)"/><circle class="cls-8" cx="252.93" cy="189.89" r="5.28"/><circle class="cls-8" cx="285.54" cy="190.11" r="5.28"/><path class="cls-11" d="M270,184a26.59,26.59,0,0,0,4.52,17.8c6,9.05,4.23,15.38-2.11,13.87S264.54,197.28,270,184Z"/><polygon class="cls-8" points="257.6 175.87 244.03 179.19 242.22 173.46 255.19 169.84 257.6 175.87"/><polygon class="cls-8" points="282.34 172.25 280.53 177.98 291.99 182.81 294.4 177.38 282.34 172.25"/><path class="cls-7" d="M210.75,199.19s-7.84-16.28-14.08-12.26-1.4,8.64.2,9.25-1-7.84,3-6,6.23,5.42,3,7.44-4.43,4.22-1.41,3.82A93,93,0,0,0,210.75,199.19Z"/><path class="cls-8" d="M278.11,232c0,4.92-4.19,3.29-9.07,3.29s-8.63,1.63-8.63-3.29a8.85,8.85,0,1,1,17.7,0Z"/><path class="cls-11" d="M276.54,275.16a21.44,21.44,0,0,1-42.81.61c5.54,4.63,13.55,8.61,23.58,6.15A92.32,92.32,0,0,0,276.54,275.16Z"/><path class="cls-12" d="M336,438.53s-52,87.94-160.84,104.79C175.14,543.32,267.08,513.25,336,438.53Z"/></g><path class="cls-3" d="M216.22,193.89l-8.76,21.33s12.95,26.65,33.13,36.55,49.13,9.9,59.79-38.84C300.38,212.93,311,209.12,216.22,193.89Z"/><path class="cls-13" d="M213.05,201.89s35.54,18.78,51,20.82l15.48,2s-36.3,8.37-67.53-20.82Z"/><path class="cls-13" d="M289.21,239.71s-9.65,4.07-31.73-2.28l-22.09-6.35s28.18,17.52,50,13.46Z"/><ellipse class="cls-14" cx="382.97" cy="226.25" rx="32.55" ry="32.27"/><ellipse class="cls-15" cx="369.35" cy="221.62" rx="9.18" ry="9.1"/><ellipse class="cls-15" cx="396.06" cy="224.26" rx="6.18" ry="6.12"/><ellipse class="cls-15" cx="384.3" cy="245.16" rx="6.18" ry="6.12"/><ellipse class="cls-15" cx="389.42" cy="204.98" rx="6.18" ry="6.12"/><path class="cls-14" d="M356.43,168s12.23,24.75,6.25,37.13l11.44-5.67S360.34,177,358.78,165.68Z"/><ellipse class="cls-14" cx="355.39" cy="165.17" rx="5.98" ry="5.93"/><path class="cls-14" d="M431.78,182s-17.44,21.47-31.29,21.35l10,7.87s14.65-21.89,24.36-28.1Z"/><ellipse class="cls-14" cx="433.93" cy="179.83" rx="5.98" ry="5.93"/><path class="cls-14" d="M427.86,273.72s-19.84-19.31-18.35-33l-8.89,9.13s20.53,16.61,25.81,26.8Z"/><ellipse class="cls-14" cx="429.79" cy="276.06" rx="5.98" ry="5.93"/><path class="cls-14" d="M352.42,281.52s15.51-22.88,29.31-23.94l-10.68-7s-12.7,23.06-21.83,30.08Z"/><ellipse class="cls-14" cx="350.47" cy="283.83" rx="5.98" ry="5.93"/><path class="cls-14" d="M317.27,227.11s27.8-.5,36.57,10.12l-.33-12.68s-26.34,2.88-37.37-.53Z"/><ellipse class="cls-14" cx="314.23" cy="226.84" rx="5.98" ry="5.93"/><ellipse class="cls-14" cx="116.97" cy="269.38" rx="26.31" ry="26.08"/><ellipse class="cls-15" cx="105.97" cy="265.63" rx="7.42" ry="7.36"/><ellipse class="cls-15" cx="127.55" cy="267.76" rx="4.99" ry="4.95"/><ellipse class="cls-15" cx="118.04" cy="284.66" rx="4.99" ry="4.95"/><ellipse class="cls-15" cx="122.19" cy="252.18" rx="4.99" ry="4.95"/><path class="cls-14" d="M95.53,222.3s9.88,20,5,30l9.25-4.58s-11.14-18.13-12.4-27.3Z"/><ellipse class="cls-14" cx="94.69" cy="220.01" rx="4.84" ry="4.79"/><path class="cls-14" d="M156.42,233.58s-14.09,17.35-25.28,17.25l8.11,6.37s11.84-17.69,19.69-22.71Z"/><ellipse class="cls-14" cx="158.16" cy="231.86" rx="4.84" ry="4.79"/><path class="cls-14" d="M153.25,307.75s-16-15.61-14.83-26.64l-7.18,7.37s16.59,13.43,20.86,21.66Z"/><ellipse class="cls-14" cx="154.82" cy="309.63" rx="4.84" ry="4.79"/><path class="cls-14" d="M92.28,314.05s12.53-18.5,23.69-19.36l-8.63-5.64S97.08,307.69,89.7,313.36Z"/><ellipse class="cls-14" cx="90.7" cy="315.91" rx="4.84" ry="4.79"/><path class="cls-14" d="M63.87,270.07s22.47-.4,29.56,8.18L93.16,268s-21.29,2.33-30.2-.42Z"/><ellipse class="cls-14" cx="61.42" cy="269.85" rx="4.84" ry="4.79"/></svg>