<svg id="Layer_1" data-name="Layer 1" xmlns="http://www.w3.org/2000/svg" xmlns:xlink="http://www.w3.org/1999/xlink" viewBox="0 0 500 500"><defs><style>.cls-1,.cls-9{fill:none;}.cls-2{clip-path:url(#clip-path);}.cls-3{fill:#f4f4f4;}.cls-4{fill:#ffbba8;}.cls-5{fill:#ffc200;}.cls-6{opacity:0.43;}.cls-7{fill:#d89282;opacity:0.25;}.cls-8{fill:#431754;}.cls-9{stroke:#3f2300;stroke-linecap:round;stroke-miterlimit:10;stroke-width:0.25px;}.cls-10,.cls-11{fill:#fa687d;}.cls-10{opacity:0.61;}.cls-12{opacity:0.1;}</style><clipPath id="clip-path"><circle class="cls-1" cx="249.66" cy="255.14" r="168.18"/></clipPath></defs><title>Artboard 2</title><g class="cls-2"><circle class="cls-3" cx="252.32" cy="258.33" r="168.18"/><path class="cls-4" d="M151.54,377.94l-62.85,72c-8.67,11.47-12.91,21.17.17,32.18h0c14,11.78,27.29,1.79,38.58-12.6l53.94-62.57Z"/><path class="cls-4" d="M87.63,483.35A22.49,22.49,0,0,1,81.69,476L29.16,355.28l21-10.61,69.13,112.59c8.94,15.39-3.13,33.47-20.62,31A22.66,22.66,0,0,1,87.63,483.35Z"/><path class="cls-5" d="M356.58,630.53c-118.22,39.8-188.19,13.26-188.19,13.26S151.79,529,166.12,394.08c10.57-99.59,13.61-103,66.16-103.11h51.44c.77,0,1.49,0,2.22,0,65.09,1,59.06,46.23,63.45,92.55C362.37,520.75,356.58,630.53,356.58,630.53Z"/><path class="cls-5" d="M183.26,305.43S114.09,388.38,103,417.66l50.48,34.86s55.16-32.44,63-50.11C216.43,402.41,216.36,349.26,183.26,305.43Z"/><path class="cls-6" d="M287.09,299a28,28,0,1,1-54.81-8h51.44c.77,0,1.49,0,2.22,0A27.31,27.31,0,0,1,287.09,299Z"/><path class="cls-5" d="M329.64,304.08s68.75,83,78.85,112.65l-51.44,34.91s-54.62-33.34-62.18-51.13C294.87,400.51,295.83,347.36,329.64,304.08Z"/><path class="cls-4" d="M279.25,257l.79,42.21a21.39,21.39,0,0,1-42.77,0L236.48,257Z"/><path class="cls-7" d="M279.25,276.19V283A21.09,21.09,0,0,1,263,290.58H252.74a21.32,21.32,0,0,1-16.26-7.52V270.54C249.48,280.63,265.21,285.67,279.25,276.19Z"/><path class="cls-8" d="M301.37,171.66s3.78,23.43,1.63,31.61c0,0-8.62-16.28-9.92-25.46C293.08,177.81,294.93,164.79,301.37,171.66Z"/><path class="cls-4" d="M289.59,265.89a47.14,47.14,0,0,1-5.48,6.31c-17,16.38-37.5,8.08-52.75-6-11.69-10.82-20.34-25.08-22-34.25-.13-.6-.22-1.26-.35-1.86-.74-4-1.56-8-2.34-12a8,8,0,0,1-.22-1,7.47,7.47,0,0,1-.18-.92c-.65-3.21-1.21-6.47-1.73-9.69-1.7-11.12-2.09-22,1.69-31.94A30.57,30.57,0,0,1,208.8,169c.35-.7.78-1.39,1.22-2.09,12.25-19,81.52-3.65,81.52-3.65s1.48,3.18,3.39,8.61c.87,2.48,1.83,5.39,2.78,8.65A151.25,151.25,0,0,1,302.36,202C305.15,222,304.06,246.21,289.59,265.89Z"/><path class="cls-8" d="M239.28,172.19s-4.86,28.44-32.59,45.88c0,0-9.83-4-9.31-23.33s12.13-26.17,12.13-26.17Z"/><path class="cls-8" d="M297.73,180.58s11.38-20.7,1.61-33.55c-7.18-9.43-17.4-12.51-34.68-5.77s-43.31,6.92-50.84,13.6c-12,10.68-23.55,23.12,13.3,20.86S297.73,180.58,297.73,180.58Z"/><path class="cls-9" d="M199.22,213.34c9.38,1,12.55,9.76,12.55,9.76"/><path class="cls-9" d="M206.92,223.32a14.43,14.43,0,0,1-.31-7"/><circle class="cls-4" cx="207.44" cy="220.03" r="19.63"/><ellipse class="cls-10" cx="244.3" cy="240.66" rx="6.21" ry="6.41" transform="translate(-11.93 468.59) rotate(-86.22)"/><ellipse class="cls-10" cx="294.12" cy="243.31" rx="6.21" ry="6.41" transform="translate(31.98 520.77) rotate(-86.22)"/><circle class="cls-8" cx="256.47" cy="215.17" r="5.26"/><circle class="cls-8" cx="288.95" cy="215.39" r="5.26"/><path class="cls-11" d="M273.44,209.31A26.49,26.49,0,0,0,278,227c6,9,4.21,15.33-2.1,13.82S268,222.54,273.44,209.31Z"/><polygon class="cls-8" points="261.13 201.2 247.6 204.51 245.8 198.8 258.72 195.19 261.13 201.2"/><polygon class="cls-8" points="285.76 197.6 283.96 203.31 295.38 208.11 297.78 202.71 285.76 197.6"/><path class="cls-7" d="M214.45,224.44s-7.81-16.23-14-12.22-1.4,8.61.2,9.21-1-7.81,3-6,6.21,5.41,3,7.42-4.41,4.2-1.4,3.8A91.6,91.6,0,0,0,214.45,224.44Z"/><path class="cls-8" d="M280.45,258.43c0,4.9-3.57.71-8.53.71s-9.46,4.19-9.46-.71a9,9,0,0,1,18,0Z"/><path class="cls-12" d="M339.2,462.84S287.38,550.45,179,567.24C179,567.24,270.56,537.28,339.2,462.84Z"/></g><path class="cls-8" d="M313.88,212.52a49.43,49.43,0,1,0,69-11.21A49.43,49.43,0,0,0,313.88,212.52ZM384,263a37.77,37.77,0,1,1-8.56-52.72A37.77,37.77,0,0,1,384,263Z"/><rect class="cls-8" x="409.51" y="249.97" width="14.75" height="74.41" rx="6.4" transform="translate(-59.83 457.51) rotate(-54.22)"/><path class="cls-8" d="M179.94,301a38,38,0,1,0,12.16,52.4A38,38,0,0,0,179.94,301Zm-35.17,56.42a29.06,29.06,0,1,1,40-9.29A29.05,29.05,0,0,1,144.77,357.39Z"/><rect class="cls-8" x="122.26" y="355.26" width="11.35" height="57.25" rx="5.68" transform="translate(222.47 -9.56) rotate(31.94)"/></svg>