<svg id="Layer_1" data-name="Layer 1" xmlns="http://www.w3.org/2000/svg" xmlns:xlink="http://www.w3.org/1999/xlink" viewBox="0 0 500 500"><defs><style>.cls-1,.cls-9{fill:none;}.cls-2{fill:#f4f4f4;}.cls-3{clip-path:url(#clip-path);}.cls-4{fill:#ffbba8;}.cls-5{fill:#61caff;}.cls-6{opacity:0.43;}.cls-7{fill:#d89282;opacity:0.25;}.cls-8{fill:#431754;}.cls-9{stroke:#3f2300;stroke-linecap:round;stroke-miterlimit:10;stroke-width:0.25px;}.cls-10,.cls-11{fill:#fa687d;}.cls-10{opacity:0.61;}.cls-12{opacity:0.1;}</style><clipPath id="clip-path"><circle class="cls-1" cx="238.72" cy="260.62" r="162.83"/></clipPath></defs><title>Artboard 1</title><circle class="cls-2" cx="239.49" cy="260.79" r="162.83"/><g class="cls-3"><path class="cls-4" d="M133.94,369.73,73.09,439.41c-8.39,11.1-12.49,20.49.16,31.15h0c13.55,11.41,26.43,1.74,37.36-12.2l52.22-60.57Z"/><path class="cls-4" d="M72.07,471.79a21.91,21.91,0,0,1-5.76-7.08L15.46,347.79l20.29-10.27,66.93,109c8.66,14.9-3,32.41-20,30A22,22,0,0,1,72.07,471.79Z"/><path class="cls-5" d="M332.45,614.28C218,652.82,150.26,627.12,150.26,627.12S134.18,516,148.06,385.36c10.23-96.43,13.17-99.74,64.05-99.84h49.8c.75,0,1.45,0,2.15.05,63,.93,57.18,44.76,61.43,89.6C338.06,508,332.45,614.28,332.45,614.28Z"/><path class="cls-5" d="M164.65,299.53s-67,80.31-77.75,108.66l48.87,33.75s53.4-31.41,61-48.51C196.77,393.43,196.7,342,164.65,299.53Z"/><path class="cls-6" d="M265.18,293.33a27.1,27.1,0,1,1-53.07-7.81h49.8c.75,0,1.45,0,2.15.05A26.33,26.33,0,0,1,265.18,293.33Z"/><path class="cls-5" d="M306.37,298.22s66.56,80.36,76.34,109.06l-49.8,33.81s-52.88-32.28-60.2-49.51C272.71,391.58,273.63,340.12,306.37,298.22Z"/><path class="cls-4" d="M257.58,252.67l.77,40.86a20.7,20.7,0,1,1-41.4,0l-.77-40.86Z"/><path class="cls-7" d="M257.58,271.22v6.61a20.39,20.39,0,0,1-15.73,7.32h-9.93a20.65,20.65,0,0,1-15.74-7.28V265.75C228.76,275.51,244,280.39,257.58,271.22Z"/><path class="cls-8" d="M279,170s3.66,22.69,1.58,30.61c0,0-8.34-15.76-9.61-24.65C271,176,272.77,163.37,279,170Z"/><path class="cls-4" d="M267.6,261.25a45.39,45.39,0,0,1-5.31,6.1c-16.49,15.86-36.31,7.83-51.07-5.8-11.32-10.48-19.69-24.28-21.25-33.16-.13-.59-.21-1.22-.34-1.81-.71-3.87-1.51-7.74-2.27-11.65a9.56,9.56,0,0,1-.21-1A7,7,0,0,1,187,213c-.63-3.11-1.18-6.26-1.68-9.38-1.64-10.77-2-21.29,1.64-30.92a29.36,29.36,0,0,1,2.44-5.26c.34-.67.76-1.35,1.18-2,11.86-18.43,78.93-3.53,78.93-3.53s1.43,3.07,3.28,8.33c.84,2.39,1.77,5.21,2.69,8.37A146.59,146.59,0,0,1,280,199.4C282.66,218.76,281.61,242.19,267.6,261.25Z"/><path class="cls-8" d="M218.89,170.53s-4.71,27.54-31.56,44.42c0,0-9.51-3.9-9-22.59S190.07,167,190.07,167Z"/><path class="cls-8" d="M275.48,178.66s11-20,1.55-32.49c-6.95-9.13-16.84-12.11-33.57-5.59s-41.93,6.7-49.23,13.17c-11.65,10.34-22.79,22.38,12.89,20.2S275.48,178.66,275.48,178.66Z"/><path class="cls-9" d="M180.1,210.37c9.08.93,12.16,9.45,12.16,9.45"/><path class="cls-9" d="M187.56,220a13.84,13.84,0,0,1-.3-6.81"/><circle class="cls-4" cx="188.06" cy="216.85" r="19.01"/><ellipse class="cls-10" cx="223.75" cy="236.82" rx="6.01" ry="6.21" transform="translate(-27.29 444.49) rotate(-86.22)"/><ellipse class="cls-10" cx="271.99" cy="239.38" rx="6.01" ry="6.21" transform="translate(15.21 495.02) rotate(-86.22)"/><circle class="cls-8" cx="235.53" cy="212.14" r="5.09"/><circle class="cls-8" cx="266.98" cy="212.36" r="5.09"/><path class="cls-11" d="M252,206.47a25.62,25.62,0,0,0,4.36,17.17c5.82,8.72,4.07,14.83-2,13.38S246.73,219.27,252,206.47Z"/><polygon class="cls-8" points="240.04 198.62 226.95 201.82 225.2 196.29 237.71 192.8 240.04 198.62"/><polygon class="cls-8" points="263.89 195.13 262.15 200.65 273.2 205.31 275.53 200.07 263.89 195.13"/><path class="cls-7" d="M194.85,221.11s-7.56-15.7-13.57-11.83-1.36,8.34.19,8.93-1-7.57,2.91-5.82,6,5.23,2.91,7.17-4.27,4.08-1.36,3.69A88.33,88.33,0,0,0,194.85,221.11Z"/><path class="cls-8" d="M259.15,252.16a9.13,9.13,0,0,1-18.22,0c0-4.73,3.66-1.47,8.69-1.47S259.15,247.43,259.15,252.16Z"/><path class="cls-12" d="M315.63,451.93S265.46,536.75,160.5,553C160.5,553,249.17,524,315.63,451.93Z"/></g></svg>