<svg id="Layer_1" data-name="Layer 1" xmlns="http://www.w3.org/2000/svg" xmlns:xlink="http://www.w3.org/1999/xlink" viewBox="0 0 500 500"><defs><style>.cls-1,.cls-10{fill:none;}.cls-2{clip-path:url(#clip-path);}.cls-3{fill:#f4f4f4;}.cls-4{fill:#ffbba8;}.cls-11,.cls-5{fill:#fa687d;}.cls-6{opacity:0.43;}.cls-7{fill:#d89282;opacity:0.25;}.cls-8{fill:#431754;}.cls-9{fill:url(#linear-gradient);}.cls-10{stroke:#3f2300;stroke-linecap:round;stroke-miterlimit:10;stroke-width:0.25px;}.cls-11{opacity:0.61;}.cls-12{opacity:0.1;}.cls-13{fill:#fff;}.cls-14{fill:#35d7b0;}.cls-15{fill:#452964;opacity:0.36;}</style><clipPath id="clip-path"><circle class="cls-1" cx="259.54" cy="276.7" r="169.46"/></clipPath><linearGradient id="linear-gradient" x1="247.5" y1="239.21" x2="249.8" y2="125.7" gradientUnits="userSpaceOnUse"><stop offset="0" stop-color="#f2a194"/><stop offset="1" stop-color="#e84f4f"/></linearGradient></defs><title>Artboard 4</title><g class="cls-2"><circle class="cls-3" cx="253.82" cy="276.53" r="169.46"/><path class="cls-4" d="M145.85,360.88,82.52,433.4c-8.73,11.55-13,21.32.17,32.41h0c14.1,11.88,27.5,1.82,38.88-12.69l54.35-63Z"/><path class="cls-4" d="M81.46,467.09a22.73,22.73,0,0,1-6-7.37L22.55,338.05l21.11-10.69L113.32,440.8c9,15.51-3.15,33.73-20.78,31.21A22.77,22.77,0,0,1,81.46,467.09Z"/><path class="cls-5" d="M352.45,615.38c-119.12,40.11-189.62,13.37-189.62,13.37s-16.72-115.67-2.28-251.61c10.64-100.35,13.71-103.8,66.65-103.9H279c.78,0,1.51,0,2.24.05,65.59,1,59.51,46.58,63.93,93.26C358.28,504.77,352.45,615.38,352.45,615.38Z"/><path class="cls-5" d="M177.82,287.82S108.11,371.4,96.89,400.9L147.75,436s55.58-32.69,63.49-50.49C211.24,385.54,211.16,332,177.82,287.82Z"/><path class="cls-6" d="M282.44,281.36a28.2,28.2,0,1,1-55.24-8.12H279c.78,0,1.51,0,2.24.05A27.39,27.39,0,0,1,282.44,281.36Z"/><path class="cls-5" d="M325.3,286.46s69.27,83.63,79.45,113.5l-51.83,35.18s-55-33.59-62.65-51.52C290.27,383.62,291.23,330.06,325.3,286.46Z"/><path class="cls-4" d="M275.31,281.58a8.72,8.72,0,0,1,0,.88,21.52,21.52,0,0,1-43,.61c0-.48-.06-1-.06-1.49L231.46,239h43.07Z"/><path class="cls-7" d="M274.53,258.36v6.88a21.25,21.25,0,0,1-16.38,7.61H247.82a21.49,21.49,0,0,1-16.38-7.57V252.67C244.53,262.83,260.38,267.91,274.53,258.36Z"/><path class="cls-8" d="M296.82,153s3.81,23.62,1.64,31.85c0,0-8.68-16.4-10-25.65C288.46,159.23,290.33,146.12,296.82,153Z"/><path class="cls-9" d="M285,248a47.22,47.22,0,0,1-5.52,6.35c-17.16,16.51-37.79,8.15-53.16-6-11.77-10.9-20.49-25.26-22.11-34.5-.13-.62-.22-1.27-.35-1.89-.74-4-1.57-8.05-2.36-12.13a7.85,7.85,0,0,1-.22-1.05,7.12,7.12,0,0,1-.18-.92c-.65-3.24-1.22-6.52-1.75-9.76-1.71-11.21-2.1-22.16,1.71-32.18a31.12,31.12,0,0,1,2.54-5.48c.35-.7.79-1.4,1.23-2.1,12.34-19.18,82.14-3.68,82.14-3.68s1.49,3.2,3.41,8.67c.88,2.5,1.84,5.43,2.81,8.72a154.83,154.83,0,0,1,4.68,21.63C300.62,203.76,299.53,228.15,285,248Z"/><path class="cls-8" d="M234.26,153.57s-4.9,28.66-32.84,46.23c0,0-9.9-4.07-9.38-23.51s12.23-26.37,12.23-26.37Z"/><path class="cls-8" d="M293.15,162s11.47-20.87,1.62-33.81c-7.23-9.51-17.53-12.61-34.94-5.82s-43.64,7-51.23,13.71c-12.13,10.76-23.72,23.29,13.41,21S293.15,162,293.15,162Z"/><path class="cls-10" d="M193.89,195c9.45,1,12.65,9.84,12.65,9.84"/><path class="cls-10" d="M201.65,205.09a14.53,14.53,0,0,1-.31-7.1"/><circle class="cls-4" cx="202.18" cy="201.77" r="19.78"/><ellipse class="cls-11" cx="239.32" cy="222.56" rx="6.26" ry="6.46" transform="translate(1.48 446.7) rotate(-86.22)"/><ellipse class="cls-11" cx="289.52" cy="225.23" rx="6.26" ry="6.46" transform="translate(45.72 499.29) rotate(-86.22)"/><circle class="cls-8" cx="251.58" cy="196.88" r="5.3"/><circle class="cls-8" cx="284.31" cy="197.1" r="5.3"/><path class="cls-5" d="M268.68,191a26.73,26.73,0,0,0,4.54,17.87c6.06,9.08,4.24,15.44-2.12,13.92S263.23,204.3,268.68,191Z"/><polygon class="cls-8" points="256.27 182.8 242.65 186.13 240.83 180.38 253.85 176.75 256.27 182.8"/><polygon class="cls-8" points="281.1 179.17 279.28 184.92 290.78 189.76 293.2 184.31 281.1 179.17"/><path class="cls-7" d="M209.24,206.21s-7.87-16.35-14.13-12.31-1.41,8.68.21,9.29-1-7.88,3-6.06,6.26,5.45,3,7.47-4.44,4.24-1.41,3.83A90.64,90.64,0,0,0,209.24,206.21Z"/><path class="cls-8" d="M276.85,239.16c0,4.93-4.2,3.31-9.11,3.31s-8.65,1.62-8.65-3.31a8.88,8.88,0,1,1,17.76,0Z"/><path class="cls-5" d="M275.28,282.46a21.52,21.52,0,0,1-43,.61c5.57,4.64,13.61,8.65,23.68,6.17A92.83,92.83,0,0,0,275.28,282.46Z"/><path class="cls-12" d="M334.93,446.43S282.72,534.7,173.5,551.61C173.5,551.61,265.78,521.43,334.93,446.43Z"/></g><path class="cls-3" d="M214.74,200.89,206,222.29s13,26.76,33.25,36.7,49.3,9.93,60-39C299.2,220,309.91,216.18,214.74,200.89Z"/><path class="cls-13" d="M211.55,208.92s35.67,18.85,51.22,20.89l15.54,2s-36.44,8.41-67.78-20.9Z"/><path class="cls-13" d="M288,246.88s-9.68,4.08-31.85-2.29L234,238.22s28.29,17.58,50.2,13.5Z"/><ellipse class="cls-14" cx="101.81" cy="238.66" rx="32.67" ry="32.39"/><ellipse class="cls-15" cx="88.14" cy="234.01" rx="9.22" ry="9.14"/><ellipse class="cls-15" cx="114.95" cy="236.65" rx="6.2" ry="6.15"/><ellipse class="cls-15" cx="103.14" cy="257.64" rx="6.2" ry="6.15"/><ellipse class="cls-15" cx="108.29" cy="217.3" rx="6.2" ry="6.15"/><path class="cls-14" d="M75.18,180.2S87.45,205,81.44,217.47l11.49-5.7s-13.83-22.51-15.4-33.9Z"/><ellipse class="cls-14" cx="74.13" cy="177.35" rx="6.01" ry="5.95"/><path class="cls-14" d="M150.8,194.2s-17.5,21.55-31.4,21.43l10.07,7.9s14.71-22,24.45-28.2Z"/><ellipse class="cls-14" cx="152.96" cy="192.06" rx="6.01" ry="5.95"/><path class="cls-14" d="M146.87,286.31S127,266.92,128.45,253.22l-8.92,9.16s20.6,16.67,25.9,26.9Z"/><ellipse class="cls-14" cx="148.81" cy="288.65" rx="6.01" ry="5.95"/><path class="cls-14" d="M71.15,294.13s15.56-23,29.42-24l-10.73-7s-12.74,23.14-21.9,30.19Z"/><ellipse class="cls-14" cx="69.19" cy="296.45" rx="6.01" ry="5.95"/><path class="cls-14" d="M35.87,239.52s27.9-.5,36.71,10.16L72.24,237s-26.44,2.89-37.51-.53Z"/><ellipse class="cls-14" cx="32.82" cy="239.25" rx="6.01" ry="5.95"/><ellipse class="cls-14" cx="393.48" cy="245.26" rx="21.65" ry="21.46"/><ellipse class="cls-15" cx="384.43" cy="242.18" rx="6.11" ry="6.05"/><ellipse class="cls-15" cx="402.19" cy="243.94" rx="4.11" ry="4.07"/><ellipse class="cls-15" cx="394.37" cy="257.84" rx="4.11" ry="4.07"/><ellipse class="cls-15" cx="397.77" cy="231.11" rx="4.11" ry="4.07"/><path class="cls-14" d="M375.84,206.53S384,223,380,231.22l7.61-3.77s-9.17-14.92-10.2-22.46Z"/><ellipse class="cls-14" cx="375.15" cy="204.64" rx="3.98" ry="3.94"/><path class="cls-14" d="M425.94,215.81s-11.59,14.28-20.8,14.19l6.67,5.24s9.75-14.56,16.2-18.69Z"/><ellipse class="cls-14" cx="427.37" cy="214.39" rx="3.98" ry="3.94"/><path class="cls-14" d="M423.34,276.83s-13.2-12.84-12.21-21.92L405.22,261s13.65,11,17.17,17.82Z"/><ellipse class="cls-14" cx="424.62" cy="278.38" rx="3.98" ry="3.94"/><path class="cls-14" d="M373.17,282s10.31-15.22,19.49-15.93l-7.1-4.64s-8.45,15.33-14.52,20Z"/><ellipse class="cls-14" cx="371.87" cy="283.55" rx="3.98" ry="3.94"/><path class="cls-14" d="M349.79,245.83s18.49-.33,24.33,6.73l-.23-8.43S356.38,246,349,243.78Z"/><ellipse class="cls-14" cx="347.77" cy="245.65" rx="3.98" ry="3.94"/><ellipse class="cls-14" cx="332.71" cy="92.76" rx="21.65" ry="21.46"/><ellipse class="cls-15" cx="323.66" cy="89.68" rx="6.11" ry="6.05"/><ellipse class="cls-15" cx="341.42" cy="91.43" rx="4.11" ry="4.07"/><ellipse class="cls-15" cx="333.6" cy="105.34" rx="4.11" ry="4.07"/><ellipse class="cls-15" cx="337" cy="78.61" rx="4.11" ry="4.07"/><path class="cls-14" d="M315.07,54s8.13,16.46,4.15,24.69L326.83,75S317.66,60,316.62,52.48Z"/><ellipse class="cls-14" cx="314.38" cy="52.14" rx="3.98" ry="3.94"/><path class="cls-14" d="M365.17,63.31s-11.6,14.28-20.8,14.19L351,82.74s9.75-14.56,16.2-18.69Z"/><ellipse class="cls-14" cx="366.6" cy="61.89" rx="3.98" ry="3.94"/><path class="cls-14" d="M362.56,124.33s-13.19-12.84-12.2-21.92l-5.91,6.07s13.65,11,17.16,17.82Z"/><ellipse class="cls-14" cx="363.85" cy="125.88" rx="3.98" ry="3.94"/><path class="cls-14" d="M312.4,129.51s10.31-15.21,19.49-15.92L324.78,109s-8.44,15.33-14.51,20Z"/><ellipse class="cls-14" cx="311.1" cy="131.05" rx="3.98" ry="3.94"/><path class="cls-14" d="M289,93.33s18.49-.33,24.32,6.73l-.22-8.43s-17.52,1.91-24.85-.35Z"/><ellipse class="cls-14" cx="287" cy="93.15" rx="3.98" ry="3.94"/></svg>